<?xml version="1.0" encoding="UTF-8"?>
<svg width="9.33275px" height="11.666375px" viewBox="0 0 9.33275 11.666375" version="1.1" xmlns="http://www.w3.org/2000/svg" xmlns:xlink="http://www.w3.org/1999/xlink">
    <title>调试</title>
    <defs>
        <linearGradient x1="21.0877299%" y1="100%" x2="77.1639482%" y2="23.0371066%" id="linearGradient-1">
            <stop stop-color="#FF9378" offset="0%"></stop>
            <stop stop-color="#E13D5B" offset="100%"></stop>
        </linearGradient>
        <path d="M8.03745834,7.11870834 C8.37065194,7.09257915 8.69967045,7.20642818 8.94545754,7.43289986 C9.19124462,7.65937154 9.33158218,7.97799382 9.33275,8.31220834 L9.33275,8.840125 C9.33275,9.47802275 9.05429186,10.0841392 8.57033334,10.4997083 C7.65683334,11.2837083 6.35016668,11.666375 4.664625,11.666375 C2.97908332,11.666375 1.67329166,11.283125 0.761833338,10.4997083 C0.278246436,10.0841629 0,9.47830877 0,8.84070834 L0,8.311625 C0,7.58683334 0.604916662,7.118125 1.32970834,7.118125 L8.03804166,7.118125 L8.03745834,7.11870834 Z M4.605125,0.00408333789 L4.66345834,0 C4.88247077,8.86140552e-05 5.06767336,0.162109729 5.096875,0.379166676 L5.10095834,0.4375 L5.10095834,0.875 L7.142625,0.875 C7.86749873,0.875 8.455125,1.46262627 8.455125,2.1875 L8.455125,4.81541668 C8.455125,5.54029041 7.86749873,6.12791668 7.142625,6.12791668 L2.18429166,6.12791668 C1.45941793,6.12791668 0.871791662,5.54029041 0.871791662,4.81541668 L0.871791662,2.1875 C0.871791662,1.46262627 1.45941793,0.875 2.18429166,0.875 L4.22595834,0.875 L4.22595834,0.4375 C4.22604695,0.218487572 4.38806806,0.0332849817 4.605125,0.00408333789 L4.66345834,0 L4.605125,0.00408333789 Z M3.35095834,2.625 C3.0542987,2.61657149 2.78212894,2.78878385 2.66271423,3.06047873 C2.54329952,3.33217361 2.60046828,3.64913608 2.80727865,3.86199155 C3.01408902,4.07484703 3.32927335,4.14112158 3.60429502,4.02958208 C3.8793167,3.91804258 4.05929695,3.650946 4.05941674,3.35416668 C4.05959415,2.95984936 3.74626487,2.63682948 3.352125,2.625 L3.35095834,2.625 Z M5.971875,2.625 C5.67521536,2.61657149 5.4030456,2.78878386 5.2836309,3.06047874 C5.16421619,3.33217362 5.22138496,3.64913609 5.42819533,3.86199156 C5.6350057,4.07484703 5.95019003,4.14112158 6.2252117,4.02958208 C6.50023337,3.91804258 6.68021362,3.650946 6.68033341,3.35416668 C6.68050617,2.95973946 6.36700442,2.636675 5.97275,2.625 L5.971875,2.625 Z" id="path-2"></path>
        <filter x="-53.6%" y="-34.3%" width="207.1%" height="185.7%" filterUnits="objectBoundingBox" id="filter-3">
            <feOffset dx="0" dy="1" in="SourceAlpha" result="shadowOffsetOuter1"></feOffset>
            <feGaussianBlur stdDeviation="1.5" in="shadowOffsetOuter1" result="shadowBlurOuter1"></feGaussianBlur>
            <feColorMatrix values="0 0 0 0 0.909803922   0 0 0 0 0.321568627   0 0 0 0 0.384313725  0 0 0 0.433566434 0" type="matrix" in="shadowBlurOuter1"></feColorMatrix>
        </filter>
        <filter x="-48.2%" y="-30.0%" width="196.4%" height="177.1%" filterUnits="objectBoundingBox" id="filter-4">
            <feGaussianBlur stdDeviation="1" in="SourceAlpha" result="shadowBlurInner1"></feGaussianBlur>
            <feOffset dx="0" dy="1" in="shadowBlurInner1" result="shadowOffsetInner1"></feOffset>
            <feComposite in="shadowOffsetInner1" in2="SourceAlpha" operator="arithmetic" k2="-1" k3="1" result="shadowInnerInner1"></feComposite>
            <feColorMatrix values="0 0 0 0 1   0 0 0 0 0.292701982   0 0 0 0 0.297902702  0 0 0 1 0" type="matrix" in="shadowInnerInner1"></feColorMatrix>
        </filter>
    </defs>
    <g id="调试" stroke="none" stroke-width="1" fill="none" fill-rule="evenodd">
        <g id="形状">
            <use fill="black" fill-opacity="1" filter="url(#filter-3)" xlink:href="#path-2"></use>
            <use fill="url(#linearGradient-1)" fill-rule="evenodd" xlink:href="#path-2"></use>
            <use fill="black" fill-opacity="1" filter="url(#filter-4)" xlink:href="#path-2"></use>
        </g>
        <path d="M5.93033341,4.10388345 C6.34454697,4.10388345 6.68033341,3.76809702 6.68033341,3.35388345 C6.68033341,2.93966989 6.34454697,2.60388345 5.93033341,2.60388345 C5.51611985,2.60388345 5.18033341,2.93966989 5.18033341,3.35388345 C5.18033341,3.76809702 5.51611985,4.10388345 5.93033341,4.10388345 Z" id="椭圆形" fill="#FFFFFF"></path>
        <path d="M3.30941674,4.10416668 C3.7236303,4.10416668 4.05941666,3.76838024 4.05941666,3.35416668 C4.05941666,2.93995311 3.7236303,2.60416668 3.30941674,2.60416668 C2.89520318,2.60416668 2.55941666,2.93995311 2.55941666,3.35416668 C2.55941666,3.76838024 2.89520318,4.10416668 3.30941674,4.10416668 Z" id="椭圆形备份" fill="#FFFFFF"></path>
    </g>
</svg>