<?xml version="1.0" encoding="UTF-8"?>
<svg width="20px" height="20px" viewBox="0 0 20 20" version="1.1" xmlns="http://www.w3.org/2000/svg" xmlns:xlink="http://www.w3.org/1999/xlink">
    <title>删除</title>
    <g id="删除" stroke="none" stroke-width="1" fill="none" fill-rule="evenodd">
        <rect id="矩形" stroke-opacity="0.6" stroke="#AFB0B4" stroke-width="0.5" fill="#FFFFFF" x="0.25" y="0.25" width="19.5" height="19.5" rx="4"></rect>
        <path d="M15.7035446,6.64827654 L10.7808808,6.64827654 C10.7894737,6.62034958 10.7937701,6.5913485 10.7937701,6.56127331 L10.7937701,5.29596719 C10.7937701,5.13270188 10.6616541,5.00058588 10.4983888,5.00058588 C10.3351235,5.00058588 10.2030075,5.13270188 10.2030075,5.29596719 L10.2030075,6.5601992 C10.2030075,6.59027439 10.207304,6.62034958 10.2158969,6.64720242 L5.29538131,6.64720242 C5.132116,6.64827654 5,6.78039254 5,6.94365785 C5,7.10692315 5.132116,7.23903916 5.29538131,7.23903916 L6.76369495,7.23903916 L7.53705693,14.9339908 C7.55209452,15.0843668 7.67883996,15.1992969 7.83029001,15.1992969 L13.1686359,15.1992969 C13.3200859,15.1992969 13.4468314,15.0843668 13.461869,14.9339908 L14.236305,7.23796504 L15.7046187,7.23796504 C15.867884,7.23796504 16,7.10584904 16,6.94258373 C15.9989259,6.78039254 15.8668099,6.64827654 15.7035446,6.64827654 Z M12.9011815,14.6096084 L8.09774436,14.6096084 L7.3566058,7.23903916 L13.6433942,7.23903916 L12.9011815,14.6096084 L12.9011815,14.6096084 Z" id="形状" fill="#9A9CA0" fill-rule="nonzero"></path>
        <path d="M9.6,9.40004882 C9.69204746,9.40004882 9.76957137,9.45704961 9.79285581,9.53464489 L9.8,9.58338216 L9.8,12.9101266 C9.8,13.0113788 9.71045695,13.09346 9.6,13.09346 C9.50795254,13.09346 9.43042863,13.0364592 9.40714419,12.9588639 L9.4,12.9101266 L9.4,9.58338216 C9.4,9.48212995 9.48954305,9.40004882 9.6,9.40004882 Z M11.4333333,9.40004882 C11.5253808,9.40004882 11.6029047,9.45704961 11.6261891,9.53464489 L11.6333333,9.58338216 L11.6333333,12.9101266 C11.6333333,13.0113788 11.5437903,13.09346 11.4333333,13.09346 C11.3412859,13.09346 11.263762,13.0364592 11.2404775,12.9588639 L11.2333333,12.9101266 L11.2333333,9.58338216 C11.2333333,9.48212995 11.3228764,9.40004882 11.4333333,9.40004882 Z" id="形状结合" fill="#9A9CA0" fill-rule="nonzero"></path>
    </g>
</svg>