<?xml version="1.0" encoding="UTF-8"?>
<svg width="20px" height="20px" viewBox="0 0 20 20" version="1.1" xmlns="http://www.w3.org/2000/svg" xmlns:xlink="http://www.w3.org/1999/xlink">
    <title>刷新</title>
    <g id="刷新" stroke="none" stroke-width="1" fill="none" fill-rule="evenodd">
        <rect id="矩形" stroke-opacity="0.6" stroke="#AFB0B4" stroke-width="0.5" fill="#FFFFFF" x="0.25" y="0.25" width="19.5" height="19.5" rx="4"></rect>
        <path d="M14.2143063,7.36662151 C14.0466674,7.36662151 13.9106127,7.50267627 13.9106127,7.67031517 L13.9106127,8.09761216 C13.1720297,6.84366101 11.8123931,6 10.2517114,6 C7.90355191,6 6,7.90355191 6,10.2517114 C6,12.5998708 7.90355191,14.5034227 10.2517114,14.5034227 C11.672694,14.5034227 12.9242156,13.8015866 13.6955975,12.7304591 C13.6980271,12.7280295 13.6995456,12.7252963 13.7016714,12.7228667 C13.7110859,12.7095042 13.7226263,12.6976602 13.7320408,12.6842976 C13.730826,12.6836902 13.7302186,12.6827792 13.7290039,12.6821718 C13.7624102,12.6329734 13.7867056,12.5770938 13.7867056,12.5133181 C13.7870093,12.343857 13.6497398,12.2068912 13.4808861,12.2068912 C13.3612308,12.2068912 13.2601008,12.2773481 13.2096877,12.377567 L13.2075618,12.377567 C12.5458133,13.2959367 11.4701303,13.8960354 10.2517114,13.8960354 C8.23913341,13.8960354 6.60738734,12.2642893 6.60738734,10.2517114 C6.60738734,8.23913341 8.23913341,6.60738734 10.2517114,6.60738734 C11.6614574,6.60738734 12.8789653,7.41035339 13.4848341,8.58139618 L12.9995317,8.58139618 C12.8318928,8.58139618 12.695838,8.71745094 12.695838,8.88508985 C12.695838,9.05272875 12.8318928,9.18878351 12.9995317,9.18878351 L14.2143063,9.18878351 C14.3819452,9.18878351 14.518,9.05272875 14.518,8.88508985 L14.518,7.67031517 C14.518,7.50267627 14.3819452,7.36662151 14.2143063,7.36662151 Z" id="路径" fill="#989A9E" fill-rule="nonzero"></path>
    </g>
</svg>