<?xml version="1.0" encoding="UTF-8"?>
<svg width="32px" height="32px" viewBox="0 0 32 32" version="1.1" xmlns="http://www.w3.org/2000/svg" xmlns:xlink="http://www.w3.org/1999/xlink">
    <title>三通2</title>
    <defs>
        <circle id="path-1" cx="16" cy="16" r="16"></circle>
        <filter x="-21.9%" y="-15.6%" width="143.8%" height="143.8%" filterUnits="objectBoundingBox" id="filter-3">
            <feOffset dx="0" dy="2" in="SourceAlpha" result="shadowOffsetOuter1"></feOffset>
            <feGaussianBlur stdDeviation="2" in="shadowOffsetOuter1" result="shadowBlurOuter1"></feGaussianBlur>
            <feColorMatrix values="0 0 0 0 0.663141452   0 0 0 0 0.708804371   0 0 0 0 0.800130208  0 0 0 1 0" type="matrix" in="shadowBlurOuter1"></feColorMatrix>
        </filter>
    </defs>
    <g id="三通2" stroke="none" stroke-width="1" fill="none" fill-rule="evenodd">
        <mask id="mask-2" fill="white">
            <use xlink:href="#path-1"></use>
        </mask>
        <g id="蒙版">
            <use fill="black" fill-opacity="1" filter="url(#filter-3)" xlink:href="#path-1"></use>
            <use fill="#5F799D" fill-rule="evenodd" xlink:href="#path-1"></use>
        </g>
        <rect id="矩形" fill-opacity="0.691897946" fill="#FFFFFF" mask="url(#mask-2)" x="11" y="-4" width="10" height="36"></rect>
        <polygon id="矩形" fill="#FFFFFF" mask="url(#mask-2)" points="-3 11 11 11 11 -0.416570363 21 -0.416570363 21 21 11 21 -3 21"></polygon>
        <g id="编组-23" mask="url(#mask-2)">
            <g transform="translate(11.000000, 16.250000) rotate(90.000000) translate(-11.000000, -16.250000) translate(8.000000, 13.000000)">
                <line x1="3" y1="-2.90566182e-16" x2="3" y2="3" id="路径-52" stroke="#40CD88" stroke-width="3" fill="none"></line>
                <polygon id="三角形" stroke="none" fill="#40CD88" fill-rule="evenodd" transform="translate(3.000000, 4.500000) scale(1, -1) translate(-3.000000, -4.500000) " points="3 2.5 6 6.5 0 6.5"></polygon>
            </g>
        </g>
        <g id="编组-24" mask="url(#mask-2)">
            <g transform="translate(2.000000, 16.250000) rotate(90.000000) translate(-2.000000, -16.250000) translate(-1.000000, 13.000000)">
                <line x1="3" y1="-2.90566182e-16" x2="3" y2="3" id="路径-52" stroke="#40CD88" stroke-width="3" fill="none"></line>
                <polygon id="三角形" stroke="none" fill="#40CD88" fill-rule="evenodd" transform="translate(3.000000, 4.500000) scale(1, -1) translate(-3.000000, -4.500000) " points="3 2.5 6 6.5 0 6.5"></polygon>
            </g>
        </g>
        <line x1="16" y1="-2" x2="16" y2="1" id="路径-52" stroke="#40CD88" stroke-width="3" mask="url(#mask-2)"></line>
        <line x1="16" y1="6" x2="16" y2="9" id="路径-52" stroke="#40CD88" stroke-width="3" mask="url(#mask-2)"></line>
        <polygon id="三角形" fill="#40CD88" mask="url(#mask-2)" transform="translate(16.000000, 2.500000) scale(1, -1) translate(-16.000000, -2.500000) " points="16 0.5 19 4.5 13 4.5"></polygon>
        <polygon id="三角形" fill="#40CD88" mask="url(#mask-2)" transform="translate(16.000000, 10.500000) scale(1, -1) translate(-16.000000, -10.500000) " points="16 8.5 19 12.5 13 12.5"></polygon>
        <line x1="11" y1="21.5" x2="21" y2="21.5" id="路径-49" stroke="#216DFA" mask="url(#mask-2)"></line>
        <circle id="椭圆形" fill="#292929" mask="url(#mask-2)" cx="11" cy="21.5" r="1"></circle>
    </g>
</svg>